<?xml version="1.0" encoding="UTF-8"?>
<svg id="Layer_1" data-name="Layer 1" xmlns="http://www.w3.org/2000/svg" xmlns:xlink="http://www.w3.org/1999/xlink" version="1.1" viewBox="0 0 720 576">
  <defs>
    <style>
      .cls-1, .cls-2, .cls-3, .cls-4, .cls-5, .cls-6 {
        font-family: ArialMT, Arial;
        isolation: isolate;
      }

      .cls-1, .cls-7, .cls-8 {
        fill: #fff;
      }

      .cls-1, .cls-4 {
        font-size: 11px;
      }

      .cls-9, .cls-7, .cls-10, .cls-11, .cls-12, .cls-13, .cls-14 {
        stroke-width: 1.1px;
      }

      .cls-9, .cls-15, .cls-16, .cls-11, .cls-17, .cls-12, .cls-13, .cls-14 {
        stroke: #000;
      }

      .cls-9, .cls-15, .cls-12, .cls-14 {
        stroke-miterlimit: 10;
      }

      .cls-9, .cls-16, .cls-17, .cls-12 {
        fill-opacity: .5;
      }

      .cls-9, .cls-17 {
        fill: #ffea46;
      }

      .cls-18, .cls-10, .cls-15, .cls-11, .cls-19, .cls-13, .cls-14 {
        fill: none;
      }

      .cls-18, .cls-8 {
        stroke-width: 0px;
      }

      .cls-2 {
        font-size: 10px;
      }

      .cls-2, .cls-3, .cls-4, .cls-5, .cls-6 {
        fill: #000;
      }

      .cls-7 {
        stroke: #fff;
      }

      .cls-7, .cls-10, .cls-16, .cls-11, .cls-17, .cls-19, .cls-13 {
        stroke-linejoin: round;
      }

      .cls-7, .cls-16, .cls-17, .cls-13 {
        stroke-linecap: round;
      }

      .cls-3 {
        font-size: 11px;
      }

      .cls-10 {
        stroke: #333;
      }

      .cls-20 {
        clip-path: url(#clippath-1);
      }

      .cls-21 {
        clip-path: url(#clippath-4);
      }

      .cls-22 {
        clip-path: url(#clippath-3);
      }

      .cls-23 {
        clip-path: url(#clippath-7);
      }

      .cls-24 {
        clip-path: url(#clippath-8);
      }

      .cls-25 {
        clip-path: url(#clippath-5);
      }

      .cls-15 {
        stroke-width: 2.1px;
      }

      .cls-16, .cls-17 {
        stroke-opacity: .5;
        stroke-width: .7px;
      }

      .cls-16, .cls-12 {
        fill: #4e576c;
      }

      .cls-19 {
        stroke: #bebebe;
        stroke-width: .2px;
      }

      .cls-5 {
        font-size: 8.8px;
      }

      .cls-6 {
        font-size: 8.5px;
      }
    </style>
    <clipPath id="clippath-1">
      <rect class="cls-18" width="720" height="439.3"/>
    </clipPath>
    <clipPath id="clippath-3">
      <rect class="cls-18" x="46" y="44.7" width="668.5" height="386.4"/>
    </clipPath>
    <clipPath id="clippath-4">
      <rect class="cls-18" width="720" height="576"/>
    </clipPath>
    <clipPath id="clippath-5">
      <rect class="cls-18" y="439.3" width="720" height="136.7"/>
    </clipPath>
    <clipPath id="clippath-7">
      <rect class="cls-18" x="46" y="444.8" width="668.5" height="77.9"/>
    </clipPath>
    <clipPath id="clippath-8">
      <rect class="cls-18" width="720" height="576"/>
    </clipPath>
  </defs>
  <rect class="cls-18" width="720" height="576"/>
  <g class="cls-20">
    <rect class="cls-7" width="720" height="439.3"/>
  </g>
  <g class="cls-22">
    <g>
      <rect class="cls-8" x="46" y="44.7" width="668.5" height="386.4"/>
      <line class="cls-19" x1="46" y1="413.5" x2="714.5" y2="413.5"/>
      <line class="cls-19" x1="46" y1="325.7" x2="714.5" y2="325.7"/>
      <line class="cls-19" x1="46" y1="237.9" x2="714.5" y2="237.9"/>
      <line class="cls-19" x1="46" y1="150.1" x2="714.5" y2="150.1"/>
      <line class="cls-19" x1="46" y1="62.2" x2="714.5" y2="62.2"/>
      <line class="cls-11" x1="108" y1="247.6" x2="108" y2="234.9"/>
      <line class="cls-11" x1="108" y1="303.9" x2="108" y2="314.6"/>
      <polygon class="cls-12" points="90.9 247.6 90.9 303.9 125.1 303.9 125.1 247.6 90.9 247.6"/>
      <line class="cls-15" x1="90.9" y1="276.1" x2="125.1" y2="276.1"/>
      <circle class="cls-16" cx="209.3" cy="331.2" r="2"/>
      <line class="cls-11" x1="209.3" y1="232.5" x2="209.3" y2="222.8"/>
      <line class="cls-11" x1="209.3" y1="267.8" x2="209.3" y2="282"/>
      <polygon class="cls-12" points="192.2 232.5 192.2 267.8 226.4 267.8 226.4 232.5 192.2 232.5"/>
      <line class="cls-15" x1="192.2" y1="245.4" x2="226.4" y2="245.4"/>
      <circle class="cls-16" cx="310.6" cy="355" r="2"/>
      <circle class="cls-16" cx="310.6" cy="365.5" r="2"/>
      <line class="cls-11" x1="310.6" y1="224.4" x2="310.6" y2="206.8"/>
      <line class="cls-11" x1="310.6" y1="273.4" x2="310.6" y2="343.2"/>
      <polygon class="cls-12" points="293.5 224.4 293.5 273.4 327.7 273.4 327.7 224.4 293.5 224.4"/>
      <line class="cls-15" x1="293.5" y1="258.2" x2="327.7" y2="258.2"/>
      <circle class="cls-16" cx="411.9" cy="385.1" r="2"/>
      <line class="cls-11" x1="411.9" y1="210.6" x2="411.9" y2="187.7"/>
      <line class="cls-11" x1="411.9" y1="270.9" x2="411.9" y2="338.5"/>
      <polygon class="cls-12" points="394.8 210.6 394.8 270.9 429 270.9 429 210.6 394.8 210.6"/>
      <line class="cls-15" x1="394.8" y1="242.9" x2="429" y2="242.9"/>
      <line class="cls-11" x1="513.2" y1="197.5" x2="513.2" y2="178.4"/>
      <line class="cls-11" x1="513.2" y1="279.2" x2="513.2" y2="366.4"/>
      <polygon class="cls-12" points="496.1 197.5 496.1 279.2 530.3 279.2 530.3 197.5 496.1 197.5"/>
      <line class="cls-15" x1="496.1" y1="238.4" x2="530.3" y2="238.4"/>
      <line class="cls-11" x1="614.5" y1="198.5" x2="614.5" y2="187.1"/>
      <line class="cls-11" x1="614.5" y1="275.5" x2="614.5" y2="327"/>
      <polygon class="cls-12" points="597.4 198.5 597.4 275.5 631.6 275.5 631.6 198.5 597.4 198.5"/>
      <line class="cls-15" x1="597.4" y1="226.1" x2="631.6" y2="226.1"/>
      <line class="cls-11" x1="146" y1="243.8" x2="146" y2="218.2"/>
      <line class="cls-11" x1="146" y1="266.1" x2="146" y2="289.5"/>
      <polygon class="cls-9" points="128.9 243.8 128.9 266.1 163.1 266.1 163.1 243.8 128.9 243.8"/>
      <line class="cls-15" x1="128.9" y1="255.3" x2="163.1" y2="255.3"/>
      <line class="cls-11" x1="247.3" y1="229.4" x2="247.3" y2="215.6"/>
      <line class="cls-11" x1="247.3" y1="308.4" x2="247.3" y2="365.1"/>
      <polygon class="cls-9" points="230.2 229.4 230.2 308.4 264.4 308.4 264.4 229.4 230.2 229.4"/>
      <line class="cls-15" x1="230.2" y1="257.4" x2="264.4" y2="257.4"/>
      <circle class="cls-17" cx="348.6" cy="386.5" r="2"/>
      <circle class="cls-17" cx="348.6" cy="388.1" r="2"/>
      <line class="cls-11" x1="348.6" y1="219.6" x2="348.6" y2="171.8"/>
      <line class="cls-11" x1="348.6" y1="286.3" x2="348.6" y2="358.6"/>
      <polygon class="cls-9" points="331.5 219.6 331.5 286.3 365.7 286.3 365.7 219.6 331.5 219.6"/>
      <line class="cls-15" x1="331.5" y1="250.6" x2="365.7" y2="250.6"/>
      <line class="cls-11" x1="449.9" y1="214.3" x2="449.9" y2="170.4"/>
      <line class="cls-11" x1="449.9" y1="270.4" x2="449.9" y2="313.3"/>
      <polygon class="cls-9" points="432.8 214.3 432.8 270.4 467 270.4 467 214.3 432.8 214.3"/>
      <line class="cls-15" x1="432.8" y1="241.8" x2="467" y2="241.8"/>
      <circle class="cls-17" cx="551.2" cy="249.6" r="2"/>
      <circle class="cls-17" cx="551.2" cy="245.6" r="2"/>
      <line class="cls-11" x1="551.2" y1="174.6" x2="551.2" y2="166.7"/>
      <line class="cls-11" x1="551.2" y1="202.9" x2="551.2" y2="241.9"/>
      <polygon class="cls-9" points="534.1 174.6 534.1 202.9 568.3 202.9 568.3 174.6 534.1 174.6"/>
      <line class="cls-15" x1="534.1" y1="196.5" x2="568.3" y2="196.5"/>
      <line class="cls-11" x1="652.5" y1="172.1" x2="652.5" y2="166.1"/>
      <line class="cls-11" x1="652.5" y1="194.1" x2="652.5" y2="225.5"/>
      <polygon class="cls-9" points="635.4 172.1 635.4 194.1 669.6 194.1 669.6 172.1 635.4 172.1"/>
      <line class="cls-15" x1="635.4" y1="190.2" x2="669.6" y2="190.2"/>
      <text class="cls-6" transform="translate(135.3 252.9)"><tspan x="0" y="0">0.064</tspan></text>
      <text class="cls-6" transform="translate(236.6 252.9)"><tspan x="0" y="0">0.070</tspan></text>
      <text class="cls-6" transform="translate(337.9 246.1)"><tspan x="0" y="0">0.072</tspan></text>
      <text class="cls-6" transform="translate(439.2 237.5)"><tspan x="0" y="0">0.090</tspan></text>
      <text class="cls-6" transform="translate(540.5 192.2)"><tspan x="0" y="0">0.296</tspan></text>
      <text class="cls-6" transform="translate(641.8 185.9)"><tspan x="0" y="0">0.350</tspan></text>
      <text class="cls-6" transform="translate(97.3 272.6)"><tspan x="0" y="0">0.044</tspan></text>
      <text class="cls-6" transform="translate(198.6 241.8)"><tspan x="0" y="0">0.083</tspan></text>
      <text class="cls-6" transform="translate(299.9 254.3)"><tspan x="0" y="0">0.055</tspan></text>
      <text class="cls-6" transform="translate(401.2 239.9)"><tspan x="0" y="0">0.085</tspan></text>
      <text class="cls-6" transform="translate(502.5 234.1)"><tspan x="0" y="0">0.099</tspan></text>
      <text class="cls-6" transform="translate(603.8 221.9)"><tspan x="0" y="0">0.151</tspan></text>
      <text class="cls-4" transform="translate(161.4 223.6)"><tspan x="0" y="0">ab</tspan></text>
      <text class="cls-4" transform="translate(265.8 221.1)"><tspan x="0" y="0">a</tspan></text>
      <text class="cls-4" transform="translate(367.1 211.6)"><tspan x="0" y="0">a</tspan></text>
      <text class="cls-4" transform="translate(468.3 206.4)"><tspan x="0" y="0">a</tspan></text>
      <text class="cls-4" transform="translate(569.6 166.5)"><tspan x="0" y="0">b</tspan></text>
      <text class="cls-4" transform="translate(670.9 160.7)"><tspan x="0" y="0">b</tspan></text>
      <text class="cls-4" transform="translate(82.8 234.5)"><tspan x="0" y="0">A</tspan></text>
      <text class="cls-4" transform="translate(184.1 224.2)"><tspan x="0" y="0">A</tspan></text>
      <text class="cls-4" transform="translate(285.4 216.4)"><tspan x="0" y="0">A</tspan></text>
      <text class="cls-4" transform="translate(386.7 202.7)"><tspan x="0" y="0">A</tspan></text>
      <text class="cls-4" transform="translate(488 189.4)"><tspan x="0" y="0">A</tspan></text>
      <text class="cls-4" transform="translate(589.3 187.8)"><tspan x="0" y="0">A</tspan></text>
      <text class="cls-2" transform="translate(112.8 72.5)"><tspan x="0" y="0">Isotopic Range &gt; 20‰</tspan></text>
      <text class="cls-2" transform="translate(112.8 86.9)"><tspan x="0" y="0">Three Point</tspan></text>
      <text class="cls-2" transform="translate(112.8 101.3)"><tspan x="0" y="0">Interpolated</tspan></text>
      <line class="cls-13" x1="46" y1="427.1" x2="48.8" y2="427.1"/>
      <line class="cls-13" x1="46" y1="422" x2="48.8" y2="422"/>
      <line class="cls-13" x1="46" y1="417.6" x2="48.8" y2="417.6"/>
      <line class="cls-13" x1="46" y1="413.5" x2="54.5" y2="413.5"/>
      <line class="cls-13" x1="46" y1="387.1" x2="48.8" y2="387.1"/>
      <line class="cls-13" x1="46" y1="371.6" x2="48.8" y2="371.6"/>
      <line class="cls-13" x1="46" y1="360.7" x2="48.8" y2="360.7"/>
      <line class="cls-13" x1="46" y1="352.1" x2="51.7" y2="352.1"/>
      <line class="cls-13" x1="46" y1="345.2" x2="48.8" y2="345.2"/>
      <line class="cls-13" x1="46" y1="339.3" x2="48.8" y2="339.3"/>
      <line class="cls-13" x1="46" y1="334.2" x2="48.8" y2="334.2"/>
      <line class="cls-13" x1="46" y1="329.7" x2="48.8" y2="329.7"/>
      <line class="cls-13" x1="46" y1="325.7" x2="54.5" y2="325.7"/>
      <line class="cls-13" x1="46" y1="299.3" x2="48.8" y2="299.3"/>
      <line class="cls-13" x1="46" y1="283.8" x2="48.8" y2="283.8"/>
      <line class="cls-13" x1="46" y1="272.8" x2="48.8" y2="272.8"/>
      <line class="cls-13" x1="46" y1="264.3" x2="51.7" y2="264.3"/>
      <line class="cls-13" x1="46" y1="257.4" x2="48.8" y2="257.4"/>
      <line class="cls-13" x1="46" y1="251.5" x2="48.8" y2="251.5"/>
      <line class="cls-13" x1="46" y1="246.4" x2="48.8" y2="246.4"/>
      <line class="cls-13" x1="46" y1="241.9" x2="48.8" y2="241.9"/>
      <line class="cls-13" x1="46" y1="237.9" x2="54.5" y2="237.9"/>
      <line class="cls-13" x1="46" y1="211.4" x2="48.8" y2="211.4"/>
      <line class="cls-13" x1="46" y1="196" x2="48.8" y2="196"/>
      <line class="cls-13" x1="46" y1="185" x2="48.8" y2="185"/>
      <line class="cls-13" x1="46" y1="176.5" x2="51.7" y2="176.5"/>
      <line class="cls-13" x1="46" y1="169.6" x2="48.8" y2="169.6"/>
      <line class="cls-13" x1="46" y1="163.7" x2="48.8" y2="163.7"/>
      <line class="cls-13" x1="46" y1="158.6" x2="48.8" y2="158.6"/>
      <line class="cls-13" x1="46" y1="154.1" x2="48.8" y2="154.1"/>
      <line class="cls-13" x1="46" y1="150.1" x2="54.5" y2="150.1"/>
      <line class="cls-13" x1="46" y1="123.6" x2="48.8" y2="123.6"/>
      <line class="cls-13" x1="46" y1="108.2" x2="48.8" y2="108.2"/>
      <line class="cls-13" x1="46" y1="97.2" x2="48.8" y2="97.2"/>
      <line class="cls-13" x1="46" y1="88.7" x2="51.7" y2="88.7"/>
      <line class="cls-13" x1="46" y1="81.7" x2="48.8" y2="81.7"/>
      <line class="cls-13" x1="46" y1="75.8" x2="48.8" y2="75.8"/>
      <line class="cls-13" x1="46" y1="70.8" x2="48.8" y2="70.8"/>
      <line class="cls-13" x1="46" y1="66.3" x2="48.8" y2="66.3"/>
      <line class="cls-13" x1="46" y1="62.2" x2="54.5" y2="62.2"/>
    </g>
  </g>
  <g class="cls-21">
    <g>
      <line class="cls-11" x1="46" y1="431.1" x2="46" y2="44.7"/>
      <text class="cls-5" transform="translate(19 416.7)"><tspan x="0" y="0">0.001</tspan></text>
      <text class="cls-5" transform="translate(23.9 328.9)"><tspan x="0" y="0">0.01</tspan></text>
      <text class="cls-5" transform="translate(28.8 241)"><tspan x="0" y="0">0.1</tspan></text>
      <text class="cls-5" transform="translate(36.2 153.2)"><tspan x="0" y="0">1</tspan></text>
      <text class="cls-5" transform="translate(31.3 65.4)"><tspan x="0" y="0">10</tspan></text>
      <line class="cls-10" x1="43.2" y1="413.5" x2="46" y2="413.5"/>
      <line class="cls-10" x1="43.2" y1="325.7" x2="46" y2="325.7"/>
      <line class="cls-10" x1="43.2" y1="237.9" x2="46" y2="237.9"/>
      <line class="cls-10" x1="43.2" y1="150.1" x2="46" y2="150.1"/>
      <line class="cls-10" x1="43.2" y1="62.2" x2="46" y2="62.2"/>
      <text class="cls-3" transform="translate(13.4 319.5) rotate(-90)"><tspan x="0" y="0">Deviation from certified value (‰)</tspan></text>
      <rect class="cls-8" x="317.5" y="5.5" width="125.5" height="28.2"/>
      <rect class="cls-8" x="323" y="11" width="17.3" height="17.3"/>
      <line class="cls-14" x1="331.6" y1="26.5" x2="331.6" y2="23.9"/>
      <line class="cls-14" x1="331.6" y1="15.3" x2="331.6" y2="12.7"/>
      <rect class="cls-12" x="325.1" y="15.3" width="13" height="8.6"/>
      <line class="cls-14" x1="325.1" y1="19.6" x2="338.1" y2="19.6"/>
      <rect class="cls-8" x="385.2" y="11" width="17.3" height="17.3"/>
      <line class="cls-14" x1="393.9" y1="26.5" x2="393.9" y2="23.9"/>
      <line class="cls-14" x1="393.9" y1="15.3" x2="393.9" y2="12.7"/>
      <rect class="cls-9" x="387.4" y="15.3" width="13" height="8.6"/>
      <line class="cls-14" x1="387.4" y1="19.6" x2="400.4" y2="19.6"/>
      <text class="cls-5" transform="translate(345.8 22.8)"><tspan x="0" y="0">Nitrogen</tspan></text>
      <text class="cls-5" transform="translate(408 22.8)"><tspan x="0" y="0">Carbon</tspan></text>
    </g>
  </g>
  <g class="cls-25">
    <rect class="cls-7" y="439.3" width="720" height="136.7"/>
  </g>
  <g class="cls-23">
    <g>
      <rect class="cls-8" x="46" y="444.8" width="668.5" height="77.9"/>
      <line class="cls-19" x1="46" y1="522.7" x2="714.5" y2="522.7"/>
      <line class="cls-19" x1="46" y1="483.8" x2="714.5" y2="483.8"/>
      <line class="cls-19" x1="46" y1="444.8" x2="714.5" y2="444.8"/>
      <text class="cls-1" transform="translate(163.8 507.2)"><tspan x="0" y="0">X</tspan></text>
      <text class="cls-1" transform="translate(265.1 507.2)"><tspan x="0" y="0">X</tspan></text>
      <text class="cls-1" transform="translate(366.4 507.2)"><tspan x="0" y="0">X</tspan></text>
      <text class="cls-1" transform="translate(467.7 507.2)"><tspan x="0" y="0">X</tspan></text>
      <text class="cls-1" transform="translate(569 507.2)"><tspan x="0" y="0">X</tspan></text>
      <text class="cls-1" transform="translate(670.3 507.2)"><tspan x="0" y="0">X</tspan></text>
      <text class="cls-1" transform="translate(82.8 507.2)"><tspan x="0" y="0">X</tspan></text>
      <text class="cls-1" transform="translate(184.1 507.2)"><tspan x="0" y="0">X</tspan></text>
      <text class="cls-1" transform="translate(285.4 507.2)"><tspan x="0" y="0">X</tspan></text>
      <text class="cls-1" transform="translate(386.7 507.2)"><tspan x="0" y="0">X</tspan></text>
      <text class="cls-1" transform="translate(488 507.2)"><tspan x="0" y="0">X</tspan></text>
      <text class="cls-1" transform="translate(589.3 507.2)"><tspan x="0" y="0">X</tspan></text>
      <polygon class="cls-12" points="91.6 522.7 124.5 522.7 124.5 522.7 91.6 522.7"/>
      <polygon class="cls-12" points="192.9 522.7 225.8 522.7 225.8 522.7 192.9 522.7"/>
      <polygon class="cls-12" points="294.1 522.7 327.1 522.7 327.1 522.7 294.1 522.7"/>
      <rect class="cls-12" x="395.4" y="519.6" width="32.9" height="3.1"/>
      <rect class="cls-12" x="496.7" y="502.5" width="32.9" height="20.3"/>
      <rect class="cls-12" x="598" y="490" width="32.9" height="32.7"/>
      <rect class="cls-9" x="129.6" y="503.2" width="32.9" height="19.5"/>
      <rect class="cls-9" x="230.8" y="516.5" width="32.9" height="6.2"/>
      <rect class="cls-9" x="332.1" y="510.2" width="32.9" height="12.5"/>
      <rect class="cls-9" x="433.4" y="508.7" width="32.9" height="14"/>
      <rect class="cls-9" x="534.7" y="464.3" width="32.9" height="58.4"/>
      <rect class="cls-9" x="636" y="452.6" width="32.9" height="70.1"/>
      <text class="cls-6" transform="translate(101.8 516.6)"><tspan x="0" y="0">0%</tspan></text>
      <text class="cls-6" transform="translate(203.1 516.6)"><tspan x="0" y="0">0%</tspan></text>
      <text class="cls-6" transform="translate(304.4 516.6)"><tspan x="0" y="0">0%</tspan></text>
      <text class="cls-6" transform="translate(405.7 513.5)"><tspan x="0" y="0">4%</tspan></text>
      <text class="cls-6" transform="translate(504.7 496.3)"><tspan x="0" y="0">26%</tspan></text>
      <text class="cls-6" transform="translate(605.9 483.9)"><tspan x="0" y="0">42%</tspan></text>
      <text class="cls-6" transform="translate(137.5 497.1)"><tspan x="0" y="0">25%</tspan></text>
      <text class="cls-6" transform="translate(241.1 510.4)"><tspan x="0" y="0">8%</tspan></text>
      <text class="cls-6" transform="translate(340.1 504.1)"><tspan x="0" y="0">16%</tspan></text>
      <text class="cls-6" transform="translate(441.3 502.6)"><tspan x="0" y="0">18%</tspan></text>
      <text class="cls-6" transform="translate(542.6 458.2)"><tspan x="0" y="0">75%</tspan></text>
    </g>
  </g>
  <g class="cls-24">
    <g>
      <line class="cls-11" x1="46" y1="522.7" x2="46" y2="444.8"/>
      <text class="cls-5" transform="translate(36.2 525.9)"><tspan x="0" y="0">0</tspan></text>
      <text class="cls-5" transform="translate(31.3 486.9)"><tspan x="0" y="0">50</tspan></text>
      <text class="cls-5" transform="translate(26.4 448)"><tspan x="0" y="0">100</tspan></text>
      <line class="cls-10" x1="43.2" y1="522.7" x2="46" y2="522.7"/>
      <line class="cls-10" x1="43.2" y1="483.8" x2="46" y2="483.8"/>
      <line class="cls-10" x1="43.2" y1="444.8" x2="46" y2="444.8"/>
      <line class="cls-11" x1="46" y1="522.7" x2="714.5" y2="522.7"/>
      <line class="cls-10" x1="127" y1="525.5" x2="127" y2="522.7"/>
      <line class="cls-10" x1="228.3" y1="525.5" x2="228.3" y2="522.7"/>
      <line class="cls-10" x1="329.6" y1="525.5" x2="329.6" y2="522.7"/>
      <line class="cls-10" x1="430.9" y1="525.5" x2="430.9" y2="522.7"/>
      <line class="cls-10" x1="532.2" y1="525.5" x2="532.2" y2="522.7"/>
      <line class="cls-10" x1="633.5" y1="525.5" x2="633.5" y2="522.7"/>
      <text class="cls-5" transform="translate(110.1 534)"><tspan x="0" y="0">Matched</tspan></text>
      <text class="cls-5" transform="translate(206.8 534)"><tspan x="0" y="0">Compound</tspan></text>
      <text class="cls-5" transform="translate(198.5 543.5)"><tspan x="0" y="0">Macromolecule</tspan></text>
      <text class="cls-5" transform="translate(317.9 534)"><tspan x="0" y="0">Mixed</tspan></text>
      <text class="cls-5" transform="translate(308.1 543.5)"><tspan x="0" y="0">Compound</tspan></text>
      <text class="cls-5" transform="translate(419.2 534)"><tspan x="0" y="0">Mixed</tspan></text>
      <text class="cls-5" transform="translate(401.1 543.5)"><tspan x="0" y="0">Macromolecule</tspan></text>
      <text class="cls-5" transform="translate(520.5 534)"><tspan x="0" y="0">Mixed</tspan></text>
      <text class="cls-5" transform="translate(522.2 543.5)"><tspan x="0" y="0">Plant</tspan></text>
      <text class="cls-5" transform="translate(612 534)"><tspan x="0" y="0">Compound</tspan></text>
      <text class="cls-5" transform="translate(623.5 543.5)"><tspan x="0" y="0">Plant</tspan></text>
      <text class="cls-3" transform="translate(317.3 556.2)"><tspan x="0" y="0">Reference Material Matrix</tspan></text>
      <text class="cls-3" transform="translate(327.4 568.1)"><tspan x="0" y="0">Quality Control Matrix</tspan></text>
      <text class="cls-3" transform="translate(13.6 515.6) rotate(-90)"><tspan x="0" y="0">% Significant</tspan></text>
    </g>
  </g>
  <text class="cls-6" transform="translate(647.2 447.8)"><tspan x="0" y="0">90%</tspan></text>
</svg>