<?xml version="1.0" encoding="UTF-8"?>
<svg id="Layer_1" data-name="Layer 1" xmlns="http://www.w3.org/2000/svg" xmlns:xlink="http://www.w3.org/1999/xlink" version="1.1" viewBox="0 0 648 864">
  <defs>
    <style>
      .cls-1, .cls-2, .cls-3, .cls-4, .cls-5, .cls-6, .cls-7 {
        isolation: isolate;
      }

      .cls-1, .cls-2, .cls-4, .cls-5, .cls-6, .cls-7 {
        font-family: ArialMT, Arial;
      }

      .cls-1, .cls-8, .cls-9 {
        fill: #fff;
      }

      .cls-1, .cls-5 {
        font-size: 11px;
      }

      .cls-10, .cls-8, .cls-11, .cls-12, .cls-13, .cls-14 {
        stroke-width: 1.1px;
      }

      .cls-10, .cls-15, .cls-16, .cls-12, .cls-17, .cls-13, .cls-14 {
        stroke: #000;
      }

      .cls-10, .cls-15, .cls-13 {
        stroke-miterlimit: 10;
      }

      .cls-10, .cls-16, .cls-17, .cls-13 {
        fill-opacity: .5;
      }

      .cls-10, .cls-17 {
        fill: #ffea46;
      }

      .cls-18, .cls-11, .cls-15, .cls-12, .cls-19, .cls-14 {
        fill: none;
      }

      .cls-18, .cls-9 {
        stroke-width: 0px;
      }

      .cls-2 {
        font-size: 10px;
      }

      .cls-2, .cls-3, .cls-4, .cls-5, .cls-6, .cls-7 {
        fill: #000;
      }

      .cls-3 {
        font-family: Arial-BoldMT, Arial;
        font-size: 14px;
        font-weight: 700;
      }

      .cls-8 {
        stroke: #fff;
      }

      .cls-8, .cls-11, .cls-16, .cls-12, .cls-17, .cls-19, .cls-14 {
        stroke-linejoin: round;
      }

      .cls-8, .cls-16, .cls-17, .cls-14 {
        stroke-linecap: round;
      }

      .cls-4 {
        font-size: 11px;
      }

      .cls-11 {
        stroke: #333;
      }

      .cls-20 {
        clip-path: url(#clippath-7);
      }

      .cls-21 {
        clip-path: url(#clippath-8);
      }

      .cls-22 {
        clip-path: url(#clippath-5);
      }

      .cls-23 {
        clip-path: url(#clippath-9);
      }

      .cls-24 {
        clip-path: url(#clippath-21);
      }

      .cls-25 {
        clip-path: url(#clippath-22);
      }

      .cls-26 {
        clip-path: url(#clippath-25);
      }

      .cls-27 {
        clip-path: url(#clippath-42);
      }

      .cls-28 {
        clip-path: url(#clippath-41);
      }

      .cls-29 {
        clip-path: url(#clippath-27);
      }

      .cls-30 {
        clip-path: url(#clippath-28);
      }

      .cls-31 {
        clip-path: url(#clippath-29);
      }

      .cls-32 {
        clip-path: url(#clippath-35);
      }

      .cls-33 {
        clip-path: url(#clippath-37);
      }

      .cls-34 {
        clip-path: url(#clippath-39);
      }

      .cls-35 {
        clip-path: url(#clippath-32);
      }

      .cls-36 {
        clip-path: url(#clippath-31);
      }

      .cls-37 {
        clip-path: url(#clippath-12);
      }

      .cls-38 {
        clip-path: url(#clippath-15);
      }

      .cls-39 {
        clip-path: url(#clippath-17);
      }

      .cls-40 {
        clip-path: url(#clippath-19);
      }

      .cls-41 {
        clip-path: url(#clippath-11);
      }

      .cls-15 {
        stroke-width: 2.1px;
      }

      .cls-16, .cls-17 {
        stroke-opacity: .5;
        stroke-width: .7px;
      }

      .cls-16, .cls-13 {
        fill: #4e576c;
      }

      .cls-19 {
        stroke: #bebebe;
        stroke-width: .2px;
      }

      .cls-6 {
        font-size: 8.8px;
      }

      .cls-42 {
        letter-spacing: .2em;
      }

      .cls-7 {
        font-size: 8.5px;
      }
    </style>
    <clipPath id="clippath-5">
      <rect class="cls-18" y="41.1" width="341" height="336.6"/>
    </clipPath>
    <clipPath id="clippath-7">
      <rect class="cls-18" x="46" y="46.6" width="289.6" height="322.9"/>
    </clipPath>
    <clipPath id="clippath-8">
      <rect class="cls-18" width="648" height="864"/>
    </clipPath>
    <clipPath id="clippath-9">
      <rect class="cls-18" y="377.8" width="341" height="74.8"/>
    </clipPath>
    <clipPath id="clippath-11">
      <rect class="cls-18" x="46" y="383.2" width="289.6" height="61.1"/>
    </clipPath>
    <clipPath id="clippath-12">
      <rect class="cls-18" width="648" height="864"/>
    </clipPath>
    <clipPath id="clippath-15">
      <rect class="cls-18" x="341" y="41.1" width="307" height="336.6"/>
    </clipPath>
    <clipPath id="clippath-17">
      <rect class="cls-18" x="349.3" y="46.6" width="293.3" height="322.9"/>
    </clipPath>
    <clipPath id="clippath-19">
      <rect class="cls-18" x="341" y="377.8" width="307" height="74.8"/>
    </clipPath>
    <clipPath id="clippath-21">
      <rect class="cls-18" x="349.3" y="383.2" width="293.3" height="61.1"/>
    </clipPath>
    <clipPath id="clippath-22">
      <rect class="cls-18" width="648" height="864"/>
    </clipPath>
    <clipPath id="clippath-25">
      <rect class="cls-18" y="452.6" width="341" height="313.8"/>
    </clipPath>
    <clipPath id="clippath-27">
      <rect class="cls-18" x="46" y="458" width="289.6" height="300.1"/>
    </clipPath>
    <clipPath id="clippath-28">
      <rect class="cls-18" width="648" height="864"/>
    </clipPath>
    <clipPath id="clippath-29">
      <rect class="cls-18" y="766.4" width="341" height="97.6"/>
    </clipPath>
    <clipPath id="clippath-31">
      <rect class="cls-18" x="46" y="771.8" width="289.6" height="60.2"/>
    </clipPath>
    <clipPath id="clippath-32">
      <rect class="cls-18" width="648" height="864"/>
    </clipPath>
    <clipPath id="clippath-35">
      <rect class="cls-18" x="341" y="452.6" width="307" height="313.8"/>
    </clipPath>
    <clipPath id="clippath-37">
      <rect class="cls-18" x="349.3" y="458" width="293.3" height="300.1"/>
    </clipPath>
    <clipPath id="clippath-39">
      <rect class="cls-18" x="341" y="766.4" width="307" height="97.6"/>
    </clipPath>
    <clipPath id="clippath-41">
      <rect class="cls-18" x="349.3" y="771.8" width="293.3" height="60.2"/>
    </clipPath>
    <clipPath id="clippath-42">
      <rect class="cls-18" width="648" height="864"/>
    </clipPath>
  </defs>
  <rect class="cls-18" width="648" height="864"/>
  <g class="cls-22">
    <rect class="cls-8" y="41.1" width="341" height="336.6"/>
  </g>
  <g class="cls-20">
    <g>
      <rect class="cls-9" x="46" y="46.6" width="289.6" height="322.9"/>
      <line class="cls-19" x1="46" y1="354.9" x2="335.6" y2="354.9"/>
      <line class="cls-19" x1="46" y1="281.5" x2="335.6" y2="281.5"/>
      <line class="cls-19" x1="46" y1="208.1" x2="335.6" y2="208.1"/>
      <line class="cls-19" x1="46" y1="134.7" x2="335.6" y2="134.7"/>
      <line class="cls-19" x1="46" y1="61.3" x2="335.6" y2="61.3"/>
      <circle class="cls-16" cx="95.2" cy="317.9" r="2"/>
      <circle class="cls-16" cx="95.2" cy="347.2" r="2"/>
      <line class="cls-12" x1="95.2" y1="185.8" x2="95.2" y2="159.7"/>
      <line class="cls-12" x1="95.2" y1="231.1" x2="95.2" y2="281.5"/>
      <polygon class="cls-13" points="81.7 185.8 81.7 231.1 108.8 231.1 108.8 185.8 81.7 185.8"/>
      <line class="cls-15" x1="81.7" y1="209.3" x2="108.8" y2="209.3"/>
      <line class="cls-12" x1="175.7" y1="194.8" x2="175.7" y2="159.9"/>
      <line class="cls-12" x1="175.7" y1="246.6" x2="175.7" y2="320"/>
      <polygon class="cls-13" points="162.1 194.8 162.1 246.6 189.3 246.6 189.3 194.8 162.1 194.8"/>
      <line class="cls-15" x1="162.1" y1="216" x2="189.3" y2="216"/>
      <circle class="cls-16" cx="256.1" cy="331.1" r="2"/>
      <line class="cls-12" x1="256.1" y1="183.7" x2="256.1" y2="158.4"/>
      <line class="cls-12" x1="256.1" y1="241.2" x2="256.1" y2="315.5"/>
      <polygon class="cls-13" points="242.6 183.7 242.6 241.2 269.7 241.2 269.7 183.7 242.6 183.7"/>
      <line class="cls-15" x1="242.6" y1="212.6" x2="269.7" y2="212.6"/>
      <circle class="cls-17" cx="125.4" cy="290.4" r="2"/>
      <circle class="cls-17" cx="125.4" cy="294.5" r="2"/>
      <line class="cls-12" x1="125.4" y1="174.6" x2="125.4" y2="154.7"/>
      <line class="cls-12" x1="125.4" y1="211.4" x2="125.4" y2="260.2"/>
      <polygon class="cls-10" points="111.8 174.6 111.8 211.4 139 211.4 139 174.6 111.8 174.6"/>
      <line class="cls-15" x1="111.8" y1="196.3" x2="139" y2="196.3"/>
      <circle class="cls-17" cx="205.9" cy="333.6" r="2"/>
      <circle class="cls-17" cx="205.9" cy="314.4" r="2"/>
      <line class="cls-12" x1="205.9" y1="175.1" x2="205.9" y2="148.6"/>
      <line class="cls-12" x1="205.9" y1="226.8" x2="205.9" y2="298.5"/>
      <polygon class="cls-10" points="192.3 175.1 192.3 226.8 219.4 226.8 219.4 175.1 192.3 175.1"/>
      <line class="cls-15" x1="192.3" y1="202.5" x2="219.4" y2="202.5"/>
      <line class="cls-12" x1="286.3" y1="186" x2="286.3" y2="148.1"/>
      <line class="cls-12" x1="286.3" y1="245.4" x2="286.3" y2="332.2"/>
      <polygon class="cls-10" points="272.7 186 272.7 245.4 299.9 245.4 299.9 186 272.7 186"/>
      <line class="cls-15" x1="272.7" y1="205.1" x2="299.9" y2="205.1"/>
      <text class="cls-7" transform="translate(114.7 192)"><tspan x="0" y="0">0.145</tspan></text>
      <text class="cls-7" transform="translate(195.5 198.2)"><tspan class="cls-42" x="0" y="0">0.1</tspan><tspan x="16.6" y="0">1</tspan></text>
      <text class="cls-7" transform="translate(275.9 200.8)"><tspan class="cls-42" x="0" y="0">0.1</tspan><tspan x="16.6" y="0">1</tspan></text>
      <text class="cls-7" transform="translate(84.6 205)"><tspan x="0" y="0">0.096</tspan></text>
      <text class="cls-7" transform="translate(165 211.7)"><tspan x="0" y="0">0.078</tspan></text>
      <text class="cls-7" transform="translate(245.5 209)"><tspan x="0" y="0">0.085</tspan></text>
      <text class="cls-5" transform="translate(139.4 166.5)"><tspan x="0" y="0">a</tspan></text>
      <text class="cls-5" transform="translate(219.9 167.2)"><tspan x="0" y="0">a</tspan></text>
      <text class="cls-5" transform="translate(300.3 175.3)"><tspan x="0" y="0">a</tspan></text>
      <text class="cls-5" transform="translate(74.5 177.9)"><tspan x="0" y="0">A</tspan></text>
      <text class="cls-5" transform="translate(154.9 186.6)"><tspan x="0" y="0">A</tspan></text>
      <text class="cls-5" transform="translate(235.4 176)"><tspan x="0" y="0">A</tspan></text>
      <text class="cls-2" transform="translate(74.9 75.3)"><tspan x="0" y="0">Three Point</tspan></text>
      <text class="cls-2" transform="translate(74.9 89.7)"><tspan x="0" y="0">Interpolated</tspan></text>
      <line class="cls-14" x1="46" y1="366.2" x2="48.8" y2="366.2"/>
      <line class="cls-14" x1="46" y1="362" x2="48.8" y2="362"/>
      <line class="cls-14" x1="46" y1="358.2" x2="48.8" y2="358.2"/>
      <line class="cls-14" x1="46" y1="354.9" x2="54.5" y2="354.9"/>
      <line class="cls-14" x1="46" y1="332.8" x2="48.8" y2="332.8"/>
      <line class="cls-14" x1="46" y1="319.9" x2="48.8" y2="319.9"/>
      <line class="cls-14" x1="46" y1="310.7" x2="48.8" y2="310.7"/>
      <line class="cls-14" x1="46" y1="303.6" x2="51.7" y2="303.6"/>
      <line class="cls-14" x1="46" y1="297.8" x2="48.8" y2="297.8"/>
      <line class="cls-14" x1="46" y1="292.9" x2="48.8" y2="292.9"/>
      <line class="cls-14" x1="46" y1="288.6" x2="48.8" y2="288.6"/>
      <line class="cls-14" x1="46" y1="284.8" x2="48.8" y2="284.8"/>
      <line class="cls-14" x1="46" y1="281.5" x2="54.5" y2="281.5"/>
      <line class="cls-14" x1="46" y1="259.4" x2="48.8" y2="259.4"/>
      <line class="cls-14" x1="46" y1="246.5" x2="48.8" y2="246.5"/>
      <line class="cls-14" x1="46" y1="237.3" x2="48.8" y2="237.3"/>
      <line class="cls-14" x1="46" y1="230.2" x2="51.7" y2="230.2"/>
      <line class="cls-14" x1="46" y1="224.4" x2="48.8" y2="224.4"/>
      <line class="cls-14" x1="46" y1="219.4" x2="48.8" y2="219.4"/>
      <line class="cls-14" x1="46" y1="215.2" x2="48.8" y2="215.2"/>
      <line class="cls-14" x1="46" y1="211.4" x2="48.8" y2="211.4"/>
      <line class="cls-14" x1="46" y1="208.1" x2="54.5" y2="208.1"/>
      <line class="cls-14" x1="46" y1="186" x2="48.8" y2="186"/>
      <line class="cls-14" x1="46" y1="173.1" x2="48.8" y2="173.1"/>
      <line class="cls-14" x1="46" y1="163.9" x2="48.8" y2="163.9"/>
      <line class="cls-14" x1="46" y1="156.8" x2="51.7" y2="156.8"/>
      <line class="cls-14" x1="46" y1="151" x2="48.8" y2="151"/>
      <line class="cls-14" x1="46" y1="146.1" x2="48.8" y2="146.1"/>
      <line class="cls-14" x1="46" y1="141.8" x2="48.8" y2="141.8"/>
      <line class="cls-14" x1="46" y1="138.1" x2="48.8" y2="138.1"/>
      <line class="cls-14" x1="46" y1="134.7" x2="54.5" y2="134.7"/>
      <line class="cls-14" x1="46" y1="112.6" x2="48.8" y2="112.6"/>
      <line class="cls-14" x1="46" y1="99.7" x2="48.8" y2="99.7"/>
      <line class="cls-14" x1="46" y1="90.5" x2="48.8" y2="90.5"/>
      <line class="cls-14" x1="46" y1="83.4" x2="51.7" y2="83.4"/>
      <line class="cls-14" x1="46" y1="77.6" x2="48.8" y2="77.6"/>
      <line class="cls-14" x1="46" y1="72.7" x2="48.8" y2="72.7"/>
      <line class="cls-14" x1="46" y1="68.4" x2="48.8" y2="68.4"/>
      <line class="cls-14" x1="46" y1="64.7" x2="48.8" y2="64.7"/>
      <line class="cls-14" x1="46" y1="61.3" x2="54.5" y2="61.3"/>
    </g>
  </g>
  <g class="cls-21">
    <g>
      <line class="cls-12" x1="46" y1="369.5" x2="46" y2="46.6"/>
      <text class="cls-6" transform="translate(19 358)"><tspan x="0" y="0">0.001</tspan></text>
      <text class="cls-6" transform="translate(23.9 284.6)"><tspan x="0" y="0">0.01</tspan></text>
      <text class="cls-6" transform="translate(28.8 211.2)"><tspan x="0" y="0">0.1</tspan></text>
      <text class="cls-6" transform="translate(36.2 137.9)"><tspan x="0" y="0">1</tspan></text>
      <text class="cls-6" transform="translate(31.3 64.5)"><tspan x="0" y="0">10</tspan></text>
      <line class="cls-11" x1="43.2" y1="354.9" x2="46" y2="354.9"/>
      <line class="cls-11" x1="43.2" y1="281.5" x2="46" y2="281.5"/>
      <line class="cls-11" x1="43.2" y1="208.1" x2="46" y2="208.1"/>
      <line class="cls-11" x1="43.2" y1="134.7" x2="46" y2="134.7"/>
      <line class="cls-11" x1="43.2" y1="61.3" x2="46" y2="61.3"/>
      <text class="cls-4" transform="translate(13.4 289.7) rotate(-90)"><tspan x="0" y="0">Deviation from certified value (‰)</tspan></text>
    </g>
  </g>
  <g class="cls-23">
    <rect class="cls-8" y="377.8" width="341" height="74.8"/>
  </g>
  <g class="cls-41">
    <g>
      <rect class="cls-9" x="46" y="383.2" width="289.6" height="61.1"/>
      <line class="cls-19" x1="46" y1="441.6" x2="335.6" y2="441.6"/>
      <line class="cls-19" x1="46" y1="413.8" x2="335.6" y2="413.8"/>
      <line class="cls-19" x1="46" y1="386" x2="335.6" y2="386"/>
      <text class="cls-1" transform="translate(138.8 431.6)"><tspan x="0" y="0">X</tspan></text>
      <text class="cls-1" transform="translate(219.3 431.6)"><tspan x="0" y="0">X</tspan></text>
      <text class="cls-1" transform="translate(299.7 431.6)"><tspan x="0" y="0">X</tspan></text>
      <text class="cls-1" transform="translate(74.5 431.6)"><tspan x="0" y="0">X</tspan></text>
      <text class="cls-1" transform="translate(154.9 431.6)"><tspan x="0" y="0">X</tspan></text>
      <text class="cls-1" transform="translate(235.4 431.6)"><tspan x="0" y="0">X</tspan></text>
      <rect class="cls-13" x="82.2" y="430.5" width="26.1" height="11.1"/>
      <rect class="cls-13" x="162.6" y="432.7" width="26.1" height="8.9"/>
      <rect class="cls-13" x="243.1" y="434.4" width="26.1" height="7.2"/>
      <rect class="cls-10" x="112.3" y="425.5" width="26.1" height="16.1"/>
      <rect class="cls-10" x="192.8" y="424.4" width="26.1" height="17.2"/>
      <rect class="cls-10" x="273.2" y="423.8" width="26.1" height="17.8"/>
      <text class="cls-7" transform="translate(86.7 424.3)"><tspan x="0" y="0">20%</tspan></text>
      <text class="cls-7" transform="translate(167.1 426.6)"><tspan x="0" y="0">16%</tspan></text>
      <text class="cls-7" transform="translate(247.6 428.2)"><tspan x="0" y="0">13%</tspan></text>
      <text class="cls-7" transform="translate(116.9 419.3)"><tspan x="0" y="0">29%</tspan></text>
      <text class="cls-7" transform="translate(197.3 418.2)"><tspan x="0" y="0">31%</tspan></text>
      <text class="cls-7" transform="translate(277.8 417.7)"><tspan x="0" y="0">32%</tspan></text>
    </g>
  </g>
  <g class="cls-37">
    <g>
      <line class="cls-12" x1="46" y1="444.4" x2="46" y2="383.2"/>
      <text class="cls-6" transform="translate(36.2 444.7)"><tspan x="0" y="0">0</tspan></text>
      <text class="cls-6" transform="translate(31.3 417)"><tspan x="0" y="0">50</tspan></text>
      <text class="cls-6" transform="translate(26.4 389.2)"><tspan x="0" y="0">100</tspan></text>
      <line class="cls-11" x1="43.2" y1="441.6" x2="46" y2="441.6"/>
      <line class="cls-11" x1="43.2" y1="413.8" x2="46" y2="413.8"/>
      <line class="cls-11" x1="43.2" y1="386" x2="46" y2="386"/>
      <line class="cls-12" x1="46" y1="444.4" x2="335.6" y2="444.4"/>
      <line class="cls-11" x1="110.3" y1="447.1" x2="110.3" y2="444.4"/>
      <line class="cls-11" x1="190.8" y1="447.1" x2="190.8" y2="444.4"/>
      <line class="cls-11" x1="271.2" y1="447.1" x2="271.2" y2="444.4"/>
      <text class="cls-4" transform="translate(20.9 435.5) rotate(-90)"><tspan x="0" y="0">% Signif.</tspan></text>
      <text class="cls-3" transform="translate(56.2 76.8)"><tspan x="0" y="0">A</tspan></text>
    </g>
  </g>
  <g class="cls-38">
    <rect class="cls-8" x="341" y="41.1" width="307" height="336.6"/>
  </g>
  <g class="cls-39">
    <g>
      <rect class="cls-9" x="349.3" y="46.6" width="293.3" height="322.9"/>
      <line class="cls-19" x1="349.3" y1="354.9" x2="642.5" y2="354.9"/>
      <line class="cls-19" x1="349.3" y1="281.5" x2="642.5" y2="281.5"/>
      <line class="cls-19" x1="349.3" y1="208.1" x2="642.5" y2="208.1"/>
      <line class="cls-19" x1="349.3" y1="134.7" x2="642.5" y2="134.7"/>
      <line class="cls-19" x1="349.3" y1="61.3" x2="642.5" y2="61.3"/>
      <circle class="cls-16" cx="399.2" cy="342.6" r="2"/>
      <line class="cls-12" x1="399.2" y1="177.8" x2="399.2" y2="159.2"/>
      <line class="cls-12" x1="399.2" y1="233.4" x2="399.2" y2="271.9"/>
      <polygon class="cls-13" points="385.4 177.8 385.4 233.4 412.9 233.4 412.9 177.8 385.4 177.8"/>
      <line class="cls-15" x1="385.4" y1="208.5" x2="412.9" y2="208.5"/>
      <line class="cls-12" x1="480.6" y1="193.5" x2="480.6" y2="160.4"/>
      <line class="cls-12" x1="480.6" y1="255.6" x2="480.6" y2="300.1"/>
      <polygon class="cls-13" points="466.9 193.5 466.9 255.6 494.4 255.6 494.4 193.5 466.9 193.5"/>
      <line class="cls-15" x1="466.9" y1="228.9" x2="494.4" y2="228.9"/>
      <circle class="cls-16" cx="562.1" cy="289.7" r="2"/>
      <circle class="cls-16" cx="562.1" cy="281.6" r="2"/>
      <line class="cls-12" x1="562.1" y1="192" x2="562.1" y2="160.4"/>
      <line class="cls-12" x1="562.1" y1="227.2" x2="562.1" y2="272.8"/>
      <polygon class="cls-13" points="548.3 192 548.3 227.2 575.8 227.2 575.8 192 548.3 192"/>
      <line class="cls-15" x1="548.3" y1="214.4" x2="575.8" y2="214.4"/>
      <line class="cls-12" x1="429.7" y1="171.6" x2="429.7" y2="149.4"/>
      <line class="cls-12" x1="429.7" y1="205.3" x2="429.7" y2="241.5"/>
      <polygon class="cls-10" points="416 171.6 416 205.3 443.5 205.3 443.5 171.6 416 171.6"/>
      <line class="cls-15" x1="416" y1="190.5" x2="443.5" y2="190.5"/>
      <path class="cls-17" d="M511.2,303.1c1.1,0,1.9.9,1.9,2s-.9,2-1.9,2-2-.9-2-2,.9-2,2-2Z"/>
      <path class="cls-17" d="M511.2,287.2c1.1,0,1.9.9,1.9,2s-.9,2-1.9,2-2-.9-2-2,.9-2,2-2Z"/>
      <path class="cls-17" d="M511.2,326.5c1.1,0,1.9.9,1.9,2s-.9,2-1.9,2-2-.9-2-2,.9-2,2-2Z"/>
      <line class="cls-12" x1="511.2" y1="179.1" x2="511.2" y2="148.1"/>
      <line class="cls-12" x1="511.2" y1="220.7" x2="511.2" y2="265"/>
      <polygon class="cls-10" points="497.4 179.1 497.4 220.7 524.9 220.7 524.9 179.1 497.4 179.1"/>
      <line class="cls-15" x1="497.4" y1="200.9" x2="524.9" y2="200.9"/>
      <circle class="cls-17" cx="592.6" cy="344" r="2"/>
      <line class="cls-12" x1="592.6" y1="184.2" x2="592.6" y2="148"/>
      <line class="cls-12" x1="592.6" y1="243.9" x2="592.6" y2="284.6"/>
      <polygon class="cls-10" points="578.9 184.2 578.9 243.9 606.4 243.9 606.4 184.2 578.9 184.2"/>
      <line class="cls-15" x1="578.9" y1="195.8" x2="606.4" y2="195.8"/>
      <text class="cls-7" transform="translate(419 186.2)"><tspan x="0" y="0">0.174</tspan></text>
      <text class="cls-7" transform="translate(500.5 196.6)"><tspan x="0" y="0">0.125</tspan></text>
      <text class="cls-7" transform="translate(581.9 191.3)"><tspan x="0" y="0">0.148</tspan></text>
      <text class="cls-7" transform="translate(388.5 206.6)"><tspan x="0" y="0">0.092</tspan></text>
      <text class="cls-7" transform="translate(469.9 224.6)"><tspan x="0" y="0">0.052</tspan></text>
      <text class="cls-7" transform="translate(551.4 210)"><tspan x="0" y="0">0.082</tspan></text>
      <text class="cls-5" transform="translate(444 163.7)"><tspan x="0" y="0">a</tspan></text>
      <text class="cls-5" transform="translate(525.4 171.1)"><tspan x="0" y="0">a</tspan></text>
      <text class="cls-5" transform="translate(606.9 170)"><tspan x="0" y="0">a</tspan></text>
      <text class="cls-5" transform="translate(378.2 169.9)"><tspan x="0" y="0">A</tspan></text>
      <text class="cls-5" transform="translate(459.6 180)"><tspan x="0" y="0">A</tspan></text>
      <text class="cls-5" transform="translate(541.1 184)"><tspan x="0" y="0">A</tspan></text>
      <text class="cls-2" transform="translate(569.3 75.3)"><tspan x="0" y="0">Two Point</tspan></text>
      <text class="cls-2" transform="translate(560.4 89.7)"><tspan x="0" y="0">Interpolated</tspan></text>
    </g>
  </g>
  <g class="cls-40">
    <rect class="cls-8" x="341" y="377.8" width="307" height="74.8"/>
  </g>
  <g class="cls-24">
    <g>
      <rect class="cls-9" x="349.3" y="383.2" width="293.3" height="61.1"/>
      <line class="cls-19" x1="349.3" y1="441.6" x2="642.5" y2="441.6"/>
      <line class="cls-19" x1="349.3" y1="413.8" x2="642.5" y2="413.8"/>
      <line class="cls-19" x1="349.3" y1="386" x2="642.5" y2="386"/>
      <text class="cls-1" transform="translate(443.3 431.6)"><tspan x="0" y="0">X</tspan></text>
      <text class="cls-1" transform="translate(524.8 431.6)"><tspan x="0" y="0">X</tspan></text>
      <text class="cls-1" transform="translate(606.3 431.6)"><tspan x="0" y="0">X</tspan></text>
      <text class="cls-1" transform="translate(378.2 431.6)"><tspan x="0" y="0">X</tspan></text>
      <text class="cls-1" transform="translate(459.6 431.6)"><tspan x="0" y="0">X</tspan></text>
      <text class="cls-1" transform="translate(541.1 431.6)"><tspan x="0" y="0">X</tspan></text>
      <rect class="cls-13" x="385.9" y="432.1" width="26.5" height="9.4"/>
      <rect class="cls-13" x="467.4" y="430.5" width="26.5" height="11.1"/>
      <rect class="cls-13" x="548.8" y="433.2" width="26.5" height="8.3"/>
      <rect class="cls-10" x="416.5" y="410.5" width="26.5" height="31.1"/>
      <rect class="cls-10" x="497.9" y="421" width="26.5" height="20.5"/>
      <rect class="cls-10" x="579.4" y="418.2" width="26.5" height="23.3"/>
      <text class="cls-7" transform="translate(390.6 426)"><tspan x="0" y="0">17%</tspan></text>
      <text class="cls-7" transform="translate(472.1 424.3)"><tspan x="0" y="0">20%</tspan></text>
      <text class="cls-7" transform="translate(553.5 427.1)"><tspan x="0" y="0">15%</tspan></text>
      <text class="cls-7" transform="translate(421.2 404.4)"><tspan x="0" y="0">56%</tspan></text>
      <text class="cls-7" transform="translate(502.6 414.9)"><tspan x="0" y="0">37%</tspan></text>
      <text class="cls-7" transform="translate(584.1 412.1)"><tspan x="0" y="0">42%</tspan></text>
    </g>
  </g>
  <g class="cls-25">
    <g>
      <line class="cls-12" x1="349.3" y1="444.4" x2="642.5" y2="444.4"/>
      <line class="cls-11" x1="414.4" y1="447.1" x2="414.4" y2="444.4"/>
      <line class="cls-11" x1="495.9" y1="447.1" x2="495.9" y2="444.4"/>
      <line class="cls-11" x1="577.3" y1="447.1" x2="577.3" y2="444.4"/>
      <text class="cls-3" transform="translate(378.2 76.8)"><tspan x="0" y="0">B</tspan></text>
    </g>
  </g>
  <g class="cls-26">
    <rect class="cls-8" y="452.6" width="341" height="313.8"/>
  </g>
  <g class="cls-29">
    <g>
      <rect class="cls-9" x="46" y="458" width="289.6" height="300.1"/>
      <line class="cls-19" x1="46" y1="744.5" x2="335.6" y2="744.5"/>
      <line class="cls-19" x1="46" y1="676.3" x2="335.6" y2="676.3"/>
      <line class="cls-19" x1="46" y1="608.1" x2="335.6" y2="608.1"/>
      <line class="cls-19" x1="46" y1="539.9" x2="335.6" y2="539.9"/>
      <line class="cls-19" x1="46" y1="471.7" x2="335.6" y2="471.7"/>
      <circle class="cls-16" cx="95.2" cy="703.7" r="2"/>
      <circle class="cls-16" cx="95.2" cy="713.2" r="2"/>
      <line class="cls-12" x1="95.2" y1="567.7" x2="95.2" y2="527.3"/>
      <line class="cls-12" x1="95.2" y1="620.3" x2="95.2" y2="684"/>
      <polygon class="cls-13" points="81.7 567.7 81.7 620.3 108.8 620.3 108.8 567.7 81.7 567.7"/>
      <line class="cls-15" x1="81.7" y1="595.5" x2="108.8" y2="595.5"/>
      <circle class="cls-16" cx="175.7" cy="731.2" r="2"/>
      <line class="cls-12" x1="175.7" y1="580.3" x2="175.7" y2="568.5"/>
      <line class="cls-12" x1="175.7" y1="639.6" x2="175.7" y2="691.3"/>
      <polygon class="cls-13" points="162.1 580.3 162.1 639.6 189.3 639.6 189.3 580.3 162.1 580.3"/>
      <line class="cls-15" x1="162.1" y1="602.4" x2="189.3" y2="602.4"/>
      <circle class="cls-16" cx="271.2" cy="698" r="2"/>
      <circle class="cls-16" cx="271.2" cy="672.2" r="2"/>
      <circle class="cls-16" cx="271.2" cy="697.6" r="2"/>
      <line class="cls-12" x1="271.2" y1="597.2" x2="271.2" y2="568.5"/>
      <line class="cls-12" x1="271.2" y1="624.2" x2="271.2" y2="644.3"/>
      <polygon class="cls-13" points="244.1 597.2 244.1 624.2 298.4 624.2 298.4 597.2 244.1 597.2"/>
      <line class="cls-15" x1="244.1" y1="608.7" x2="298.4" y2="608.7"/>
      <circle class="cls-17" cx="125.4" cy="664.7" r="2"/>
      <circle class="cls-17" cx="125.4" cy="670.4" r="2"/>
      <circle class="cls-17" cx="125.4" cy="690.3" r="2"/>
      <circle class="cls-17" cx="125.4" cy="688.8" r="2"/>
      <line class="cls-12" x1="125.4" y1="562.2" x2="125.4" y2="514.1"/>
      <line class="cls-12" x1="125.4" y1="602.8" x2="125.4" y2="661.1"/>
      <polygon class="cls-10" points="111.8 562.2 111.8 602.8 139 602.8 139 562.2 111.8 562.2"/>
      <line class="cls-15" x1="111.8" y1="582.2" x2="139" y2="582.2"/>
      <circle class="cls-17" cx="205.9" cy="667.9" r="2"/>
      <circle class="cls-17" cx="205.9" cy="673.5" r="2"/>
      <circle class="cls-17" cx="205.9" cy="682.7" r="2"/>
      <line class="cls-12" x1="205.9" y1="569.3" x2="205.9" y2="538.9"/>
      <line class="cls-12" x1="205.9" y1="603.1" x2="205.9" y2="650.7"/>
      <polygon class="cls-10" points="192.3 569.3 192.3 603.1 219.4 603.1 219.4 569.3 192.3 569.3"/>
      <line class="cls-15" x1="192.3" y1="586.5" x2="219.4" y2="586.5"/>
      <text class="cls-7" transform="translate(114.7 579.2)"><tspan x="0" y="0">0.240</tspan></text>
      <text class="cls-7" transform="translate(195.2 583.4)"><tspan x="0" y="0">0.207</tspan></text>
      <text class="cls-7" transform="translate(84.6 592.7)"><tspan x="0" y="0">0.152</tspan></text>
      <text class="cls-7" transform="translate(165 599.4)"><tspan x="0" y="0">0.121</tspan></text>
      <text class="cls-7" transform="translate(260.5 605.7)"><tspan x="0" y="0">0.098</tspan></text>
      <text class="cls-5" transform="translate(139.4 554)"><tspan x="0" y="0">a</tspan></text>
      <text class="cls-5" transform="translate(219.9 560.9)"><tspan x="0" y="0">a</tspan></text>
      <text class="cls-5" transform="translate(74.5 559.8)"><tspan x="0" y="0">A</tspan></text>
      <text class="cls-5" transform="translate(151.2 572.1)"><tspan x="0" y="0">AB</tspan></text>
      <text class="cls-5" transform="translate(298.4 589.1)"><tspan x="0" y="0">B</tspan></text>
      <text class="cls-2" transform="translate(74.9 484.5)"><tspan x="0" y="0">Three Point</tspan></text>
      <text class="cls-2" transform="translate(74.9 498.9)"><tspan x="0" y="0">Extrapolated</tspan></text>
      <line class="cls-14" x1="46" y1="755.1" x2="48.8" y2="755.1"/>
      <line class="cls-14" x1="46" y1="751.1" x2="48.8" y2="751.1"/>
      <line class="cls-14" x1="46" y1="747.6" x2="48.8" y2="747.6"/>
      <line class="cls-14" x1="46" y1="744.5" x2="54.5" y2="744.5"/>
      <line class="cls-14" x1="46" y1="724" x2="48.8" y2="724"/>
      <line class="cls-14" x1="46" y1="712" x2="48.8" y2="712"/>
      <line class="cls-14" x1="46" y1="703.5" x2="48.8" y2="703.5"/>
      <line class="cls-14" x1="46" y1="696.8" x2="51.7" y2="696.8"/>
      <line class="cls-14" x1="46" y1="691.4" x2="48.8" y2="691.4"/>
      <line class="cls-14" x1="46" y1="686.9" x2="48.8" y2="686.9"/>
      <line class="cls-14" x1="46" y1="682.9" x2="48.8" y2="682.9"/>
      <line class="cls-14" x1="46" y1="679.4" x2="48.8" y2="679.4"/>
      <line class="cls-14" x1="46" y1="676.3" x2="54.5" y2="676.3"/>
      <line class="cls-14" x1="46" y1="655.8" x2="48.8" y2="655.8"/>
      <line class="cls-14" x1="46" y1="643.8" x2="48.8" y2="643.8"/>
      <line class="cls-14" x1="46" y1="635.2" x2="48.8" y2="635.2"/>
      <line class="cls-14" x1="46" y1="628.6" x2="51.7" y2="628.6"/>
      <line class="cls-14" x1="46" y1="623.2" x2="48.8" y2="623.2"/>
      <line class="cls-14" x1="46" y1="618.7" x2="48.8" y2="618.7"/>
      <line class="cls-14" x1="46" y1="614.7" x2="48.8" y2="614.7"/>
      <line class="cls-14" x1="46" y1="611.2" x2="48.8" y2="611.2"/>
      <line class="cls-14" x1="46" y1="608.1" x2="54.5" y2="608.1"/>
      <line class="cls-14" x1="46" y1="587.6" x2="48.8" y2="587.6"/>
      <line class="cls-14" x1="46" y1="575.6" x2="48.8" y2="575.6"/>
      <line class="cls-14" x1="46" y1="567" x2="48.8" y2="567"/>
      <line class="cls-14" x1="46" y1="560.4" x2="51.7" y2="560.4"/>
      <line class="cls-14" x1="46" y1="555" x2="48.8" y2="555"/>
      <line class="cls-14" x1="46" y1="550.5" x2="48.8" y2="550.5"/>
      <line class="cls-14" x1="46" y1="546.5" x2="48.8" y2="546.5"/>
      <line class="cls-14" x1="46" y1="543" x2="48.8" y2="543"/>
      <line class="cls-14" x1="46" y1="539.9" x2="54.5" y2="539.9"/>
      <line class="cls-14" x1="46" y1="519.4" x2="48.8" y2="519.4"/>
      <line class="cls-14" x1="46" y1="507.4" x2="48.8" y2="507.4"/>
      <line class="cls-14" x1="46" y1="498.8" x2="48.8" y2="498.8"/>
      <line class="cls-14" x1="46" y1="492.2" x2="51.7" y2="492.2"/>
      <line class="cls-14" x1="46" y1="486.8" x2="48.8" y2="486.8"/>
      <line class="cls-14" x1="46" y1="482.3" x2="48.8" y2="482.3"/>
      <line class="cls-14" x1="46" y1="478.3" x2="48.8" y2="478.3"/>
      <line class="cls-14" x1="46" y1="474.8" x2="48.8" y2="474.8"/>
      <line class="cls-14" x1="46" y1="471.7" x2="54.5" y2="471.7"/>
    </g>
  </g>
  <g class="cls-30">
    <g>
      <line class="cls-12" x1="46" y1="758.2" x2="46" y2="458"/>
      <text class="cls-6" transform="translate(19 747.7)"><tspan x="0" y="0">0.001</tspan></text>
      <text class="cls-6" transform="translate(23.9 679.5)"><tspan x="0" y="0">0.01</tspan></text>
      <text class="cls-6" transform="translate(28.8 611.3)"><tspan x="0" y="0">0.1</tspan></text>
      <text class="cls-6" transform="translate(36.2 543)"><tspan x="0" y="0">1</tspan></text>
      <text class="cls-6" transform="translate(31.3 474.8)"><tspan x="0" y="0">10</tspan></text>
      <line class="cls-11" x1="43.2" y1="744.5" x2="46" y2="744.5"/>
      <line class="cls-11" x1="43.2" y1="676.3" x2="46" y2="676.3"/>
      <line class="cls-11" x1="43.2" y1="608.1" x2="46" y2="608.1"/>
      <line class="cls-11" x1="43.2" y1="539.9" x2="46" y2="539.9"/>
      <line class="cls-11" x1="43.2" y1="471.7" x2="46" y2="471.7"/>
      <text class="cls-4" transform="translate(13.4 689.7) rotate(-90)"><tspan x="0" y="0">Deviation from certified value (‰)</tspan></text>
    </g>
  </g>
  <g class="cls-31">
    <rect class="cls-8" y="766.4" width="341" height="97.6"/>
  </g>
  <g class="cls-36">
    <g>
      <rect class="cls-9" x="46" y="771.8" width="289.6" height="60.2"/>
      <line class="cls-19" x1="46" y1="829.4" x2="335.6" y2="829.4"/>
      <line class="cls-19" x1="46" y1="802" x2="335.6" y2="802"/>
      <line class="cls-19" x1="46" y1="774.6" x2="335.6" y2="774.6"/>
      <text class="cls-1" transform="translate(138.8 819.6)"><tspan x="0" y="0">X</tspan></text>
      <text class="cls-1" transform="translate(219.3 819.6)"><tspan x="0" y="0">X</tspan></text>
      <text class="cls-1" transform="translate(267.5 819.6)"><tspan x="0" y="0">X</tspan></text>
      <text class="cls-1" transform="translate(74.5 819.6)"><tspan x="0" y="0">X</tspan></text>
      <text class="cls-1" transform="translate(154.9 819.6)"><tspan x="0" y="0">X</tspan></text>
      <rect class="cls-13" x="82.2" y="821.1" width="26.1" height="8.2"/>
      <rect class="cls-13" x="162.6" y="827.7" width="26.1" height="1.6"/>
      <rect class="cls-13" x="245.1" y="826.6" width="52.3" height="2.7"/>
      <rect class="cls-10" x="112.3" y="814.6" width="26.1" height="14.8"/>
      <rect class="cls-10" x="192.8" y="811.8" width="26.1" height="17.5"/>
      <text class="cls-7" transform="translate(86.7 815)"><tspan x="0" y="0">15%</tspan></text>
      <text class="cls-7" transform="translate(169.5 821.6)"><tspan x="0" y="0">3%</tspan></text>
      <text class="cls-7" transform="translate(265 820.5)"><tspan x="0" y="0">5%</tspan></text>
      <text class="cls-7" transform="translate(116.9 808.5)"><tspan x="0" y="0">27%</tspan></text>
      <text class="cls-7" transform="translate(197.3 805.7)"><tspan x="0" y="0">32%</tspan></text>
    </g>
  </g>
  <g class="cls-35">
    <g>
      <line class="cls-12" x1="46" y1="832.1" x2="46" y2="771.8"/>
      <text class="cls-6" transform="translate(36.2 832.5)"><tspan x="0" y="0">0</tspan></text>
      <text class="cls-6" transform="translate(31.3 805.1)"><tspan x="0" y="0">50</tspan></text>
      <text class="cls-6" transform="translate(26.4 777.7)"><tspan x="0" y="0">100</tspan></text>
      <line class="cls-11" x1="43.2" y1="829.4" x2="46" y2="829.4"/>
      <line class="cls-11" x1="43.2" y1="802" x2="46" y2="802"/>
      <line class="cls-11" x1="43.2" y1="774.6" x2="46" y2="774.6"/>
      <line class="cls-12" x1="46" y1="832.1" x2="335.6" y2="832.1"/>
      <line class="cls-11" x1="110.3" y1="834.8" x2="110.3" y2="832.1"/>
      <line class="cls-11" x1="190.8" y1="834.8" x2="190.8" y2="832.1"/>
      <line class="cls-11" x1="271.2" y1="834.8" x2="271.2" y2="832.1"/>
      <text class="cls-6" transform="translate(96.9 843.3)"><tspan x="0" y="0">0 to 15</tspan></text>
      <text class="cls-6" transform="translate(174.9 843.3)"><tspan x="0" y="0">15 to 30</tspan></text>
      <text class="cls-6" transform="translate(255.3 843.3)"><tspan x="0" y="0">30 to 45</tspan></text>
      <text class="cls-4" transform="translate(143.4 856.1)"><tspan x="0" y="0">Isotopic Range (‰)</tspan></text>
      <text class="cls-4" transform="translate(20.9 823.7) rotate(-90)"><tspan x="0" y="0">% Signif.</tspan></text>
      <text class="cls-3" transform="translate(56.2 488.2)"><tspan x="0" y="0">C</tspan></text>
    </g>
  </g>
  <g class="cls-32">
    <rect class="cls-8" x="341" y="452.6" width="307" height="313.8"/>
  </g>
  <g class="cls-33">
    <g>
      <rect class="cls-9" x="349.3" y="458" width="293.3" height="300.1"/>
      <line class="cls-19" x1="349.3" y1="744.5" x2="642.5" y2="744.5"/>
      <line class="cls-19" x1="349.3" y1="676.3" x2="642.5" y2="676.3"/>
      <line class="cls-19" x1="349.3" y1="608.1" x2="642.5" y2="608.1"/>
      <line class="cls-19" x1="349.3" y1="539.9" x2="642.5" y2="539.9"/>
      <line class="cls-19" x1="349.3" y1="471.7" x2="642.5" y2="471.7"/>
      <circle class="cls-16" cx="399.2" cy="731.7" r="2"/>
      <circle class="cls-16" cx="399.2" cy="716" r="2"/>
      <circle class="cls-16" cx="399.2" cy="723" r="2"/>
      <line class="cls-12" x1="399.2" y1="554.9" x2="399.2" y2="476.5"/>
      <line class="cls-12" x1="399.2" y1="617" x2="399.2" y2="708.8"/>
      <polygon class="cls-13" points="385.4 554.9 385.4 617 412.9 617 412.9 554.9 385.4 554.9"/>
      <line class="cls-15" x1="385.4" y1="581.5" x2="412.9" y2="581.5"/>
      <line class="cls-12" x1="480.6" y1="573.4" x2="480.6" y2="558.6"/>
      <line class="cls-12" x1="480.6" y1="633.7" x2="480.6" y2="666.9"/>
      <polygon class="cls-13" points="466.9 573.4 466.9 633.7 494.4 633.7 494.4 573.4 466.9 573.4"/>
      <line class="cls-15" x1="466.9" y1="597.3" x2="494.4" y2="597.3"/>
      <circle class="cls-16" cx="577.3" cy="668.9" r="2"/>
      <line class="cls-12" x1="577.3" y1="592.4" x2="577.3" y2="571.2"/>
      <line class="cls-12" x1="577.3" y1="621.7" x2="577.3" y2="653.8"/>
      <polygon class="cls-13" points="549.9 592.4 549.9 621.7 604.8 621.7 604.8 592.4 549.9 592.4"/>
      <line class="cls-15" x1="549.9" y1="604.4" x2="604.8" y2="604.4"/>
      <circle class="cls-17" cx="429.7" cy="683.8" r="2"/>
      <circle class="cls-17" cx="429.7" cy="669" r="2"/>
      <circle class="cls-17" cx="429.7" cy="698.7" r="2"/>
      <circle class="cls-17" cx="429.7" cy="689" r="2"/>
      <circle class="cls-17" cx="429.7" cy="669.9" r="2"/>
      <circle class="cls-17" cx="429.7" cy="700.1" r="2"/>
      <line class="cls-12" x1="429.7" y1="546.2" x2="429.7" y2="484.8"/>
      <line class="cls-12" x1="429.7" y1="594.3" x2="429.7" y2="655.2"/>
      <polygon class="cls-10" points="416 546.2 416 594.3 443.5 594.3 443.5 546.2 416 546.2"/>
      <line class="cls-15" x1="416" y1="569.4" x2="443.5" y2="569.4"/>
      <path class="cls-17" d="M511.2,670c1.1,0,1.9.9,1.9,2s-.9,2-1.9,2-2-.9-2-2,.9-2,2-2Z"/>
      <path class="cls-17" d="M511.2,725.2c1.1,0,1.9.9,1.9,2s-.9,2-1.9,2-2-.9-2-2,.9-2,2-2Z"/>
      <line class="cls-12" x1="511.2" y1="574.9" x2="511.2" y2="539.4"/>
      <line class="cls-12" x1="511.2" y1="607.9" x2="511.2" y2="633.2"/>
      <polygon class="cls-10" points="497.4 574.9 497.4 607.9 524.9 607.9 524.9 574.9 497.4 574.9"/>
      <line class="cls-15" x1="497.4" y1="592" x2="524.9" y2="592"/>
      <text class="cls-7" transform="translate(419 562.2)"><tspan x="0" y="0">0.425</tspan></text>
      <text class="cls-7" transform="translate(500.5 588.9)"><tspan x="0" y="0">0.172</tspan></text>
      <text class="cls-7" transform="translate(388.5 578.2)"><tspan x="0" y="0">0.247</tspan></text>
      <text class="cls-7" transform="translate(469.9 594.2)"><tspan x="0" y="0">0.144</tspan></text>
      <text class="cls-7" transform="translate(567 601.3)"><tspan class="cls-42" x="0" y="0">0.1</tspan><tspan x="16.6" y="0">1</tspan></text>
      <text class="cls-5" transform="translate(444 535.8)"><tspan x="0" y="0">a</tspan></text>
      <text class="cls-5" transform="translate(525.4 567)"><tspan x="0" y="0">b</tspan></text>
      <text class="cls-5" transform="translate(378.2 546.8)"><tspan x="0" y="0">A</tspan></text>
      <text class="cls-5" transform="translate(455.9 564.4)"><tspan x="0" y="0">AB</tspan></text>
      <text class="cls-5" transform="translate(604.9 583.5)"><tspan x="0" y="0">B</tspan></text>
      <text class="cls-2" transform="translate(569.3 484.4)"><tspan x="0" y="0">Two Point</tspan></text>
      <text class="cls-2" transform="translate(557.1 498.9)"><tspan x="0" y="0">Extrapolated</tspan></text>
    </g>
  </g>
  <g class="cls-34">
    <rect class="cls-8" x="341" y="766.4" width="307" height="97.6"/>
  </g>
  <g class="cls-28">
    <g>
      <rect class="cls-9" x="349.3" y="771.8" width="293.3" height="60.2"/>
      <line class="cls-19" x1="349.3" y1="829.4" x2="642.5" y2="829.4"/>
      <line class="cls-19" x1="349.3" y1="802" x2="642.5" y2="802"/>
      <line class="cls-19" x1="349.3" y1="774.6" x2="642.5" y2="774.6"/>
      <text class="cls-1" transform="translate(443.3 819.6)"><tspan x="0" y="0">X</tspan></text>
      <text class="cls-1" transform="translate(524.8 819.6)"><tspan x="0" y="0">X</tspan></text>
      <text class="cls-1" transform="translate(573.7 819.6)"><tspan x="0" y="0">X</tspan></text>
      <text class="cls-1" transform="translate(378.2 819.6)"><tspan x="0" y="0">X</tspan></text>
      <text class="cls-1" transform="translate(459.6 819.6)"><tspan x="0" y="0">X</tspan></text>
      <rect class="cls-13" x="385.9" y="816.2" width="26.5" height="13.1"/>
      <rect class="cls-13" x="467.4" y="817.9" width="26.5" height="11.5"/>
      <rect class="cls-13" x="550.9" y="826.6" width="53" height="2.7"/>
      <rect class="cls-10" x="416.5" y="798.7" width="26.5" height="30.7"/>
      <rect class="cls-10" x="497.9" y="803.1" width="26.5" height="26.3"/>
      <text class="cls-7" transform="translate(390.6 810.1)"><tspan x="0" y="0">24%</tspan></text>
      <text class="cls-7" transform="translate(472.1 811.7)"><tspan x="0" y="0">21%</tspan></text>
      <text class="cls-7" transform="translate(571.2 820.5)"><tspan x="0" y="0">5%</tspan></text>
      <text class="cls-7" transform="translate(421.2 792.6)"><tspan x="0" y="0">56%</tspan></text>
      <text class="cls-7" transform="translate(502.6 797)"><tspan x="0" y="0">48%</tspan></text>
    </g>
  </g>
  <g class="cls-27">
    <g>
      <line class="cls-12" x1="349.3" y1="832.1" x2="642.5" y2="832.1"/>
      <line class="cls-11" x1="414.4" y1="834.8" x2="414.4" y2="832.1"/>
      <line class="cls-11" x1="495.9" y1="834.8" x2="495.9" y2="832.1"/>
      <line class="cls-11" x1="577.3" y1="834.8" x2="577.3" y2="832.1"/>
      <text class="cls-6" transform="translate(401 843.3)"><tspan x="0" y="0">0 to 15</tspan></text>
      <text class="cls-6" transform="translate(480 843.3)"><tspan x="0" y="0">15 to 30</tspan></text>
      <text class="cls-6" transform="translate(561.4 843.3)"><tspan x="0" y="0">30 to 45</tspan></text>
      <text class="cls-4" transform="translate(448.5 856.1)"><tspan x="0" y="0">Isotopic Range (‰)</tspan></text>
      <text class="cls-3" transform="translate(378.2 488.2)"><tspan x="0" y="0">D</tspan></text>
    </g>
  </g>
</svg>